HIERARCHY
ROOT root
{
	OFFSET	0	13.1	24.9
	CHANNELS 6  Xposition Yposition Zposition Xrotation Yrotation Zrotation
	JOINT spine_1
	{
		OFFSET	0	9.99999	0
		CHANNELS 3  Xrotation Yrotation Zrotation
		JOINT spine_2
		{
			OFFSET	0	112	-10
			CHANNELS 3  Xrotation Yrotation Zrotation
			JOINT spine_3
			{
				OFFSET	0	206.5	19.3
				CHANNELS 3  Xrotation Yrotation Zrotation
				JOINT spine_4
				{
					OFFSET	0	110.4	14.6
					CHANNELS 3  Xrotation Yrotation Zrotation
					JOINT neck_1
					{
						OFFSET	0	71.8	-50.3
						CHANNELS 3  Xrotation Yrotation Zrotation
						JOINT neck_2
						{
							OFFSET	0	86.2	-25.8
							CHANNELS 3  Xrotation Yrotation Zrotation
							JOINT head_ee
							{
								OFFSET	0	179.8	-8.7
								CHANNELS 3  Xrotation Yrotation Zrotation
								End Site
								{
									OFFSET	1	0	0
								}
							}
						}
					}
					JOINT left_clavicle
					{
						OFFSET	-43.2	22.4	-70.8
						CHANNELS 3  Xrotation Yrotation Zrotation
						JOINT left_shoulder
						{
							OFFSET	-93.9	-5.79999	48.7
							CHANNELS 3  Xrotation Yrotation Zrotation
							JOINT left_elbow
							{
								OFFSET	-291.4	-30.8	15.2
								CHANNELS 3  Xrotation Yrotation Zrotation
								JOINT left_lowarm_twist
								{
									OFFSET	-110.7	-3.89999	13.6
									CHANNELS 3  Xrotation Yrotation Zrotation
									JOINT left_hand
									{
										OFFSET	-110.7	-3.89999	13.6
										CHANNELS 3  Xrotation Yrotation Zrotation
										JOINT left_ee
										{
											OFFSET	-80.8	-5.10001	12.1
											CHANNELS 3  Xrotation Yrotation Zrotation
											End Site
											{
												OFFSET	1	0	0
											}
										}
									}
								}
							}
						}
					}
					JOINT right_clavicle
					{
						OFFSET	43.2	22.4	-70.8
						CHANNELS 3  Xrotation Yrotation Zrotation
						JOINT right_shoulder
						{
							OFFSET	93.9	-5.79999	48.7
							CHANNELS 3  Xrotation Yrotation Zrotation
							JOINT right_elbow
							{
								OFFSET	291.4	-30.8	15.2
								CHANNELS 3  Xrotation Yrotation Zrotation
								JOINT right_lowarm_twist
								{
									OFFSET	110.7	-3.89999	13.6
									CHANNELS 3  Xrotation Yrotation Zrotation
									JOINT right_hand
									{
										OFFSET	110.7	-3.89999	13.6
										CHANNELS 3  Xrotation Yrotation Zrotation
										JOINT right_ee
										{
											OFFSET	80.8	-5.10001	12.1
											CHANNELS 3  Xrotation Yrotation Zrotation
											End Site
											{
												OFFSET	1	0	0
											}
										}
									}
								}
							}
						}
					}
				}
			}
		}
	}
	JOINT left_hip
	{
		OFFSET	-82.8	-127.5	0.300001
		CHANNELS 3  Xrotation Yrotation Zrotation
		JOINT left_knee
		{
			OFFSET	-28.2	-396.7	2.2
			CHANNELS 3  Xrotation Yrotation Zrotation
			JOINT left_ankle
			{
				OFFSET	-11.7	-411.3	35.4
				CHANNELS 3  Xrotation Yrotation Zrotation
				JOINT left_toes
				{
					OFFSET	0	-60	-88.6
					CHANNELS 3  Xrotation Yrotation Zrotation
					JOINT left_foot_ee
					{
						OFFSET	-22.5	-16.5	-42.2
						CHANNELS 3  Xrotation Yrotation Zrotation
						End Site
						{
							OFFSET	1	0	0
						}
					}
				}
			}
		}
	}
	JOINT right_hip
	{
		OFFSET	82.8	-127.5	0.300001
		CHANNELS 3  Xrotation Yrotation Zrotation
		JOINT right_knee
		{
			OFFSET	28.2	-396.7	2.2
			CHANNELS 3  Xrotation Yrotation Zrotation
			JOINT right_ankle
			{
				OFFSET	11.7	-411.3	35.4
				CHANNELS 3  Xrotation Yrotation Zrotation
				JOINT right_toes
				{
					OFFSET	0	-60	-88.6
					CHANNELS 3  Xrotation Yrotation Zrotation
					JOINT right_foot_ee
					{
						OFFSET	22.5	-16.5	-42.2
						CHANNELS 3  Xrotation Yrotation Zrotation
						End Site
						{
							OFFSET	1	0	0
						}
					}
				}
			}
		}
	}
}
MOTION
Frames: 5
Frame Time: 0.02
3442.87389041 715.419 -1522.70121273 3.84754580502 56.4151095834 -10.7665826301 -0.76249 1.05758 4.21401 -0.752958 0.787541 4.27262 -0.686108 -0.179618 4.34075 -0.712035 0.507526 4.31477 -5.49399 12.825 -4.31137 -5.27498 26.8404 -2.08025 -0.0 0.0 -0.0 -4.38879 23.7524 -3.24283 -11.0378 -12.4484 67.6795 2.3052 -48.7841 1.04541 -52.2063 -4.33249 4.79329 -1.31875 0.100601 -8.79653 -0.0 0.0 -0.0 13.2276 26.1207 -26.1894 -2.94334 24.837 -68.4389 0.974247 25.7621 -0.222798 -3.46584 0.134935 -0.42189 -0.598395 9.11792 7.93742 0.0 0.0 0.0 12.0368 16.0496 -0.323069 -40.2028 -0.479718 6.02664 39.6502 20.592 -5.01006 -30.7338 0.0 0.0 -0.0 0.0 -0.0 -6.82095 8.88432 8.31238 -11.3083 -0.297958 -1.70705 38.8313 22.1241 5.34242 -9.44332 0.0 0.0 0.0 0.0 0.0 
3430.39557925 713.758 -1522.33752912 3.26447576405 58.1271174842 -10.2114963141 -0.54604 1.05011 4.19283 -0.536602 0.781432 4.25101 -0.471202 -0.164564 4.31898 -0.496849 0.518962 4.2909 -5.43501 12.7015 -3.2635 -5.25611 25.8387 -1.04205 -0.0 0.0 -0.0 -4.38145 23.5301 -3.28621 -13.5523 -10.0643 68.6455 2.04437 -45.3569 0.854351 -51.2017 -4.21326 4.74427 -1.46457 1.82005 -9.00129 -0.0 0.0 -0.0 13.4842 26.5265 -26.7349 -0.560154 25.6276 -69.0644 1.0262 26.9458 -0.245862 -3.30357 0.128049 -0.402322 -0.882354 7.50757 9.18164 0.0 0.0 0.0 12.9654 15.3853 -1.16704 -41.3247 -0.553189 6.18272 37.9136 19.6752 -4.82401 -30.3077 0.0 0.0 -0.0 0.0 -0.0 -6.47546 3.84241 8.0866 -10.198 -0.2837 -1.5373 38.7913 22.1698 5.34083 -7.31518 0.0 0.0 0.0 0.0 0.0 
3430.44927494 713.758 -1522.49966534 3.25858021349 58.0627089456 -10.2045515884 -0.54604 1.05011 4.19283 -0.536602 0.781432 4.25101 -0.471202 -0.164564 4.31898 -0.496849 0.518962 4.2909 -5.43501 12.7015 -3.2635 -5.25611 25.8387 -1.04205 -0.0 0.0 -0.0 -4.38145 23.5301 -3.28621 -13.5523 -10.0643 68.6455 2.04437 -45.3569 0.854351 -51.2017 -4.21326 4.74427 -1.46457 1.82005 -9.00129 -0.0 0.0 -0.0 13.4842 26.5265 -26.7349 -0.560154 25.6276 -69.0644 1.0262 26.9458 -0.245862 -3.30357 0.128049 -0.402322 -0.882354 7.50757 9.18164 0.0 0.0 0.0 12.9654 15.3853 -1.16704 -41.3247 -0.553189 6.18272 37.9136 19.6752 -4.82401 -30.3077 0.0 0.0 -0.0 0.0 -0.0 -6.47546 3.84241 8.0866 -10.198 -0.2837 -1.5373 38.7913 22.1698 5.34083 -7.31518 0.0 0.0 0.0 0.0 0.0 
3422.80581544 713.235 -1518.77605135 2.45847664376 62.3537769348 -9.19587368945 -0.36525 1.10157 4.17754 -0.35593 0.833754 4.23902 -0.28728 -0.096844 4.31901 -0.312824 0.585841 4.28026 -6.68852 12.9366 -2.79019 -6.62108 26.026 -0.215784 -0.0 0.0 -0.0 -4.42094 23.526 -3.34186 -15.0309 -9.33214 68.7358 1.74178 -40.7849 0.647543 -50.7714 -4.16246 4.72264 -1.44064 1.9205 -8.79453 -0.0 0.0 -0.0 13.7849 26.76 -27.4051 1.4343 26.4641 -68.5776 1.06849 27.8915 -0.265337 -3.34483 0.129795 -0.407299 -0.870358 8.87278 9.68979 0.0 0.0 0.0 16.2311 14.5534 -2.78576 -41.4004 -0.558258 6.1932 37.1135 19.3239 -4.7388 -30.2092 0.0 0.0 -0.0 0.0 -0.0 -7.08534 2.54438 7.84077 -7.3061 -0.231143 -1.09669 38.4599 23.3717 5.36825 -6.12039 0.0 0.0 0.0 0.0 0.0 
3411.95287802 712.461 -1513.51281416 1.60605120163 66.4469501482 -8.1511342231 -0.109878 1.09929 4.12554 -0.100799 0.834784 4.18698 -0.0336871 -0.0657097 4.26874 -0.0585922 0.608671 4.22571 -7.41207 12.9037 -2.42093 -7.41048 25.7567 0.321328 -0.0 0.0 -0.0 -4.37783 23.4321 -3.30475 -15.0063 -8.90617 68.7226 1.43646 -35.4327 0.458905 -50.3361 -4.11123 4.70037 -1.38245 2.09251 -8.32559 -0.0 0.0 -0.0 14.083 26.9767 -28.0727 3.19704 27.1093 -68.972 1.08731 28.307 -0.274199 -3.29729 0.127783 -0.401563 -0.93412 9.3141 10.3172 0.0 0.0 0.0 19.4177 13.0156 -3.5949 -40.9078 -0.525527 6.12488 36.121 18.9235 -4.63274 -30.1581 0.0 0.0 -0.0 0.0 -0.0 -7.76481 0.639518 7.45525 -6.00276 -0.200197 -0.899075 38.3884 23.8289 5.38469 -4.49728 0.0 0.0 0.0 0.0 0.0 
